HIERARCHY
ROOT Hips
{
	OFFSET -3.958830 18.904000 13.208200
	CHANNELS 6 Xposition Yposition Zposition Zrotation Yrotation Xrotation 
	JOINT LHipJoint
	{
		OFFSET 0.000000 0.000000 0.000000
		CHANNELS 3 Zrotation Yrotation Xrotation
		JOINT LeftUpLeg
		{
			OFFSET 1.800000 -1.400000 0.085000
			CHANNELS 3 Zrotation Yrotation Xrotation
			JOINT LeftLeg
			{
				OFFSET 2.215000 -6.000000 0.000000
				CHANNELS 3 Zrotation Yrotation Xrotation
				JOINT LeftFoot
				{
					OFFSET 2.500000 -6.900000 0.000000
					CHANNELS 3 Zrotation Yrotation Xrotation
					JOINT LeftToeBase
					{
						OFFSET 0.200000 -0.500000 1.950000
						CHANNELS 3 Zrotation Yrotation Xrotation
						End Site
						{
							OFFSET 0.000000 0.000000 0.000000
						}
					}
				}
			}
		}
	}
	JOINT RHipJoint
	{
		OFFSET 0.000000 0.000000 0.000000
		CHANNELS 3 Zrotation Yrotation Xrotation
		JOINT RightUpLeg
		{
			OFFSET -1.800000 -1.400000 0.085000
			CHANNELS 3 Zrotation Yrotation Xrotation
			JOINT RightLeg
			{
				OFFSET -2.215000 -6.000000 0.000000
				CHANNELS 3 Zrotation Yrotation Xrotation
				JOINT RightFoot
				{
					OFFSET -2.500000 -6.900000 0.000000
					CHANNELS 3 Zrotation Yrotation Xrotation
					JOINT RightToeBase
					{
						OFFSET -0.200000 -0.500000 1.950000
						CHANNELS 3 Zrotation Yrotation Xrotation
						End Site
						{
							OFFSET 0.000000 0.000000 0.000000
						}
					}
				}
			}
		}
	}
	JOINT LowerBack
	{
		OFFSET 0.000000 0.000000 0.000000
		CHANNELS 3 Zrotation Yrotation Xrotation
		JOINT Spine
		{
			OFFSET -0.087000 1.940000 -0.288900
			CHANNELS 3 Zrotation Yrotation Xrotation
			JOINT Spine1
			{
				OFFSET 0.000000 1.950000 0.060000
				CHANNELS 3 Zrotation Yrotation Xrotation
				JOINT Neck
				{
					OFFSET 0.000000 0.000000 0.000000
					CHANNELS 3 Zrotation Yrotation Xrotation
					JOINT Neck1
					{
						OFFSET 0.000000 1.600000 0.340000
						CHANNELS 3 Zrotation Yrotation Xrotation
						JOINT Head
						{
							OFFSET 0.000000 1.667000 -0.240000
							CHANNELS 3 Zrotation Yrotation Xrotation
							End Site
							{
								OFFSET 0.000000 0.000000 0.000000
							}
						}
					}
				}
				JOINT LeftShoulder
				{
					OFFSET 0.000000 0.000000 0.000000
					CHANNELS 3 Zrotation Yrotation Xrotation
					JOINT LeftArm
					{
						OFFSET 2.700000 1.550000 -0.730000
						CHANNELS 3 Zrotation Yrotation Xrotation
						JOINT LeftForeArm
						{
							OFFSET 5.450000 0.000000 0.000000
							CHANNELS 3 Zrotation Yrotation Xrotation
							JOINT LeftHand
							{
								OFFSET 3.450000 0.000000 0.000000
								CHANNELS 3 Zrotation Yrotation Xrotation
								JOINT LeftHandIndex1
								{
									OFFSET 0.750000 0.000000 0.000000
									CHANNELS 3 Zrotation Yrotation Xrotation
									End Site
									{
										OFFSET 0.000000 0.000000 0.000000
									}
								}
							}
						}
					}
				}
				JOINT RightShoulder
				{
					OFFSET 0.000000 0.000000 0.000000
					CHANNELS 3 Zrotation Yrotation Xrotation
					JOINT RightArm
					{
						OFFSET -2.700000 1.550000 -0.730000
						CHANNELS 3 Zrotation Yrotation Xrotation
						JOINT RightForeArm
						{
							OFFSET -5.450000 0.000000 0.000000
							CHANNELS 3 Zrotation Yrotation Xrotation
							JOINT RightHand
							{
								OFFSET -3.450000 0.000000 0.000000
								CHANNELS 3 Zrotation Yrotation Xrotation
								JOINT RightHandIndex1
								{
									OFFSET -0.750000 0.000000 0.000000
									CHANNELS 3 Zrotation Yrotation Xrotation
									End Site
									{
										OFFSET 0.000000 0.000000 0.000000
									}
								}
							}
						}
					}
				}
			}
		}
	}
}
MOTION
Frames: 6
Frame Time: 0.016667
0.017200 16.690410 -1.173360 -5.270344 20.147758 4.965884 -15.252387 12.680465 2.743883 9.599493 -2.233030 -26.225889 5.212511 2.476657 10.765014 -0.596544 2.241143 3.630349 0.156140 0.126080 0.034660 18.099685 -11.303345 2.959167 -13.061210 0.543148 -9.855385 7.532168 -4.027073 2.970733 -0.236513 -3.418059 3.189216 0.136400 -0.013030 -0.045950 -3.564053 0.124205 -7.330427 2.312242 7.058871 11.738587 8.466417 6.778066 9.383388 -0.986834 1.990414 -11.608042 2.991340 -10.847061 27.832536 8.727880 -9.776950 -20.614680 -10.632327 -8.416797 7.693331 -56.560958 2.396795 -4.466670 -96.036497 -53.595174 48.914132 -3.423991 3.512766 0.414740 -0.161070 0.104270 0.029930 13.075485 11.316252 6.347816 53.429245 7.644053 -4.176179 84.071741 52.546369 35.221604 2.444820 -1.678198 -0.166160 0.282710 0.071000 -0.091160 
0.021480 16.689770 -1.170770 -5.186930 20.091218 4.967553 -15.241065 12.660240 2.733627 9.498098 -2.255893 -26.257917 5.130717 2.499860 10.964684 -0.594636 2.249283 3.629967 0.150510 0.119930 0.028200 18.112924 -11.291468 2.979455 -13.337642 0.554319 -9.757030 7.858026 -4.062087 2.768265 -0.239796 -3.463323 3.175704 0.133880 -0.005070 -0.046220 -3.599232 0.146158 -7.332302 2.477479 6.978118 11.595342 8.345254 6.696548 9.632713 -1.024477 1.747014 -11.651737 2.613020 -10.435744 27.795710 8.637340 -9.554820 -20.369220 -10.125007 -8.102920 7.781472 -56.962447 2.718010 -4.545728 -96.907217 -54.450380 50.354177 -3.422830 3.524067 0.409860 -0.155460 0.097920 0.031180 12.657686 11.131428 6.326899 53.834509 7.791143 -4.012287 84.840081 53.046227 36.088612 2.452062 -1.676741 -0.168490 0.283530 0.074240 -0.089390 
0.038450 16.693240 -1.168130 -5.017444 20.111346 4.877094 -15.204081 12.609113 2.707667 9.124733 -2.298750 -26.088851 4.900489 2.519821 11.099081 -0.591002 2.244060 3.639837 0.140070 0.112120 0.010700 18.152070 -11.301239 3.013474 -13.906695 0.544208 -9.374211 8.124149 -4.096286 2.369865 -0.247648 -3.560934 3.147466 0.131230 0.012890 -0.045660 -3.716131 0.256054 -7.334004 3.275454 6.822772 11.245032 7.732140 6.619371 10.179332 -1.012825 1.264287 -11.600048 1.809215 -9.995782 27.876118 8.430020 -9.545300 -19.785030 -9.596872 -7.329537 7.823443 -57.583828 3.192619 -4.457807 -99.361293 -56.020839 53.842100 -3.429812 3.539914 0.393400 -0.142730 0.084220 0.035180 12.119604 10.609451 6.248032 54.545222 7.995075 -3.715412 85.836116 54.408627 37.803871 2.470393 -1.666398 -0.168680 0.286020 0.081170 -0.079920 
0.064140 16.703480 -1.160670 -4.629581 20.078638 4.777336 -15.165345 12.570982 2.672262 8.569195 -2.351244 -25.677447 4.589962 2.545763 11.234960 -0.591678 2.237924 3.650409 0.136300 0.109010 -0.003030 18.189794 -11.304846 3.046376 -14.858628 0.543904 -9.008767 8.549572 -4.188870 2.109173 -0.259870 -3.681985 3.107281 0.131840 0.026330 -0.045790 -3.835029 0.334429 -7.325325 4.045520 6.653080 10.829844 7.030524 6.535522 10.885851 -0.977023 0.517359 -11.547103 0.535357 -9.185663 28.090970 8.248000 -9.314900 -19.377970 -8.690557 -6.224248 7.864031 -58.668877 3.778355 -4.322304 -103.063504 -57.361622 58.251115 -3.422645 3.562469 0.384190 -0.135100 0.073260 0.041020 11.188618 9.938630 6.159677 55.462727 8.259671 -3.228198 88.562284 55.488228 40.519836 2.490672 -1.659192 -0.170070 0.288090 0.085760 -0.073600 
0.092320 16.718140 -1.151290 -3.993827 20.024030 4.740042 -15.131478 12.524899 2.633066 7.737743 -2.417579 -24.991567 4.032375 2.594802 11.169597 -0.600145 2.229999 3.665527 0.137740 0.117210 -0.011720 18.227086 -11.307581 3.063984 -15.872554 0.558717 -8.766456 8.771980 -4.258989 1.925318 -0.266223 -3.795143 3.067337 0.144060 0.044680 -0.044840 -3.941708 0.421529 -7.280890 4.562927 6.627061 10.239757 6.346141 6.563708 11.665193 -0.889495 -0.088888 -11.368310 -0.440449 -8.191588 28.050275 7.730040 -8.735180 -18.909620 -7.954712 -4.937033 7.774006 -59.311401 4.177408 -3.897044 -107.238359 -58.275230 63.031604 -3.429285 3.578996 0.366430 -0.117410 0.059080 0.046410 10.335668 9.021603 5.976557 56.180280 8.704034 -2.443221 92.456533 56.831967 44.487445 2.513325 -1.641102 -0.172840 0.294600 0.089590 -0.068210 
0.130190 16.746240 -1.139340 -3.198547 20.017690 4.716049 -15.094025 12.509908 2.613620 6.824218 -2.495257 -24.105598 3.593624 2.598556 10.837020 -0.604781 2.215127 3.689810 0.128550 0.107460 -0.019650 18.261013 -11.344184 3.040170 -16.945416 0.530832 -8.521964 8.397847 -4.333658 2.156275 -0.262486 -3.872396 3.041761 0.144060 0.064160 -0.046510 -4.057348 0.478709 -7.240632 5.265439 6.502061 9.577493 5.301835 6.537825 12.397204 -0.751483 -0.834707 -11.296833 -1.789695 -6.921128 28.625826 7.017310 -7.996530 -17.970970 -6.737063 -3.661792 7.602056 -59.741478 4.143077 -3.429055 -109.558027 -58.576248 65.656910 -3.427242 3.596564 0.353300 -0.100520 0.044240 0.049260 8.901417 8.116355 6.029482 57.382499 8.623474 -1.954100 96.648370 57.501223 48.285387 2.525833 -1.626886 -0.180700 0.301980 0.096050 -0.066310 
